<svg width="989" height="200" viewBox="0 0 989 200" fill="none" xmlns="http://www.w3.org/2000/svg">
<circle cx="100" cy="100" r="99" fill="#579DCC" stroke="#084B83" stroke-width="2"/>
<path d="M29.024 113V87.8H40.292C42.836 87.8 44.876 88.532 46.412 89.996C47.948 91.46 48.716 93.344 48.716 95.648C48.716 97.88 47.948 99.728 46.412 101.192C44.876 102.656 42.836 103.388 40.292 103.388H33.344V113H29.024ZM39.644 91.436H33.344V99.86H39.608C41.12 99.86 42.284 99.476 43.1 98.708C43.94 97.916 44.36 96.884 44.36 95.612C44.36 94.388 43.952 93.392 43.136 92.624C42.32 91.832 41.156 91.436 39.644 91.436ZM55.2576 113V87.8H59.5776V109.256H73.0056V113H55.2576ZM77.3472 113L87.2472 87.8H92.2512L102.007 113H97.3632L94.8072 105.944H84.4392L81.8472 113H77.3472ZM85.6992 102.56H93.5472L89.6592 91.832L85.6992 102.56ZM117.85 109.472C119.146 109.472 120.37 109.196 121.522 108.644C122.698 108.068 123.718 107.252 124.582 106.196L127.426 108.932C126.25 110.3 124.798 111.38 123.07 112.172C121.366 112.964 119.578 113.36 117.706 113.36C115.882 113.36 114.166 113.024 112.558 112.352C110.974 111.68 109.594 110.768 108.418 109.616C107.266 108.44 106.354 107.06 105.682 105.476C105.01 103.892 104.674 102.2 104.674 100.4C104.674 98.576 105.01 96.872 105.682 95.288C106.354 93.704 107.266 92.336 108.418 91.184C109.594 90.008 110.974 89.084 112.558 88.412C114.166 87.74 115.882 87.404 117.706 87.404C119.626 87.404 121.45 87.8 123.178 88.592C124.93 89.384 126.382 90.476 127.534 91.868L124.618 94.748C123.73 93.644 122.686 92.792 121.486 92.192C120.286 91.568 119.026 91.256 117.706 91.256C116.482 91.256 115.342 91.496 114.286 91.976C113.23 92.432 112.318 93.068 111.55 93.884C110.806 94.7 110.206 95.672 109.75 96.8C109.318 97.904 109.102 99.104 109.102 100.4C109.102 101.672 109.318 102.872 109.75 104C110.206 105.104 110.818 106.064 111.586 106.88C112.378 107.672 113.314 108.308 114.394 108.788C115.474 109.244 116.626 109.472 117.85 109.472ZM133.677 113V87.8H151.713V91.472H137.997V98.492H147.573V102.092H137.997V109.328H151.857V113H133.677ZM156.38 109.292L158.72 106.124C160.328 107.444 161.78 108.392 163.076 108.968C164.372 109.52 165.74 109.796 167.18 109.796C168.836 109.796 170.192 109.424 171.248 108.68C172.304 107.912 172.832 106.952 172.832 105.8C172.832 104.768 172.484 103.988 171.788 103.46C171.092 102.932 169.916 102.512 168.26 102.2L163.616 101.408C161.456 101.024 159.836 100.292 158.756 99.212C157.676 98.132 157.136 96.728 157.136 95C157.136 92.744 157.976 90.92 159.656 89.528C161.36 88.136 163.616 87.44 166.424 87.44C168.296 87.44 170.084 87.728 171.788 88.304C173.516 88.856 175.1 89.66 176.54 90.716L174.344 93.956C173.096 92.996 171.788 92.276 170.42 91.796C169.052 91.292 167.672 91.04 166.28 91.04C164.768 91.04 163.556 91.376 162.644 92.048C161.732 92.72 161.276 93.572 161.276 94.604C161.276 95.492 161.576 96.188 162.176 96.692C162.8 97.196 163.796 97.556 165.164 97.772L169.628 98.564C172.148 98.996 174.02 99.788 175.244 100.94C176.468 102.068 177.08 103.58 177.08 105.476C177.08 106.628 176.828 107.696 176.324 108.68C175.844 109.64 175.16 110.468 174.272 111.164C173.384 111.836 172.316 112.376 171.068 112.784C169.82 113.168 168.452 113.36 166.964 113.36C164.996 113.36 163.136 113.024 161.384 112.352C159.632 111.656 157.964 110.636 156.38 109.292Z" fill="white"/>
<circle cx="626" cy="100" r="99" fill="#579DCC" stroke="#084B83" stroke-width="2"/>
<path d="M562.024 87.8H573.22C575.596 87.8 577.516 88.412 578.98 89.636C580.444 90.86 581.176 92.456 581.176 94.424C581.176 95.672 580.804 96.788 580.06 97.772C579.34 98.756 578.368 99.5 577.144 100.004C578.632 100.46 579.82 101.216 580.708 102.272C581.596 103.328 582.04 104.564 582.04 105.98C582.04 108.068 581.272 109.76 579.736 111.056C578.2 112.352 576.196 113 573.724 113H562.024V87.8ZM572.788 91.328H566.344V98.384H572.788C574.012 98.384 574.996 98.072 575.74 97.448C576.484 96.8 576.856 95.936 576.856 94.856C576.856 93.776 576.484 92.924 575.74 92.3C574.996 91.652 574.012 91.328 572.788 91.328ZM573.22 109.472C574.564 109.472 575.644 109.124 576.46 108.428C577.276 107.708 577.684 106.76 577.684 105.584C577.684 104.408 577.276 103.472 576.46 102.776C575.644 102.08 574.564 101.732 573.22 101.732H566.344V109.472H573.22ZM588.89 113V87.8H593.21V109.256H606.638V113H588.89ZM635.769 100.4C635.769 102.2 635.433 103.904 634.761 105.512C634.113 107.096 633.213 108.476 632.061 109.652C630.933 110.804 629.589 111.716 628.029 112.388C626.469 113.06 624.801 113.396 623.025 113.396C621.249 113.396 619.581 113.06 618.021 112.388C616.461 111.716 615.105 110.804 613.953 109.652C612.825 108.476 611.925 107.096 611.253 105.512C610.605 103.904 610.281 102.2 610.281 100.4C610.281 98.6 610.605 96.908 611.253 95.324C611.925 93.716 612.825 92.336 613.953 91.184C615.105 90.008 616.461 89.084 618.021 88.412C619.581 87.74 621.249 87.404 623.025 87.404C624.801 87.404 626.469 87.74 628.029 88.412C629.589 89.084 630.933 90.008 632.061 91.184C633.213 92.336 634.113 93.716 634.761 95.324C635.433 96.908 635.769 98.6 635.769 100.4ZM631.341 100.4C631.341 99.104 631.125 97.904 630.693 96.8C630.285 95.672 629.709 94.7 628.965 93.884C628.221 93.068 627.345 92.432 626.337 91.976C625.329 91.496 624.237 91.256 623.061 91.256C621.885 91.256 620.781 91.496 619.749 91.976C618.741 92.432 617.865 93.068 617.121 93.884C616.377 94.7 615.789 95.672 615.357 96.8C614.925 97.904 614.709 99.104 614.709 100.4C614.709 101.696 614.925 102.908 615.357 104.036C615.789 105.14 616.377 106.1 617.121 106.916C617.865 107.708 618.741 108.344 619.749 108.824C620.781 109.28 621.885 109.508 623.061 109.508C624.237 109.508 625.329 109.28 626.337 108.824C627.345 108.344 628.221 107.708 628.965 106.916C629.709 106.1 630.285 105.14 630.693 104.036C631.125 102.908 631.341 101.696 631.341 100.4ZM666.424 100.652C666.424 102.452 666.112 104.132 665.488 105.692C664.888 107.252 664.048 108.608 662.968 109.76C661.888 110.888 660.592 111.776 659.08 112.424C657.592 113.072 655.972 113.396 654.22 113.396C652.396 113.396 650.692 113.06 649.108 112.388C647.524 111.716 646.144 110.804 644.968 109.652C643.816 108.476 642.904 107.096 642.232 105.512C641.56 103.904 641.224 102.2 641.224 100.4C641.224 98.6 641.56 96.908 642.232 95.324C642.904 93.716 643.816 92.336 644.968 91.184C646.12 90.008 647.488 89.084 649.072 88.412C650.656 87.74 652.348 87.404 654.148 87.404C656.14 87.404 658.036 87.788 659.836 88.556C661.636 89.324 663.136 90.428 664.336 91.868L661.312 94.64C660.448 93.536 659.38 92.696 658.108 92.12C656.86 91.544 655.54 91.256 654.148 91.256C652.948 91.256 651.82 91.496 650.764 91.976C649.732 92.432 648.832 93.068 648.064 93.884C647.32 94.7 646.732 95.672 646.3 96.8C645.868 97.928 645.652 99.128 645.652 100.4C645.652 101.696 645.868 102.908 646.3 104.036C646.756 105.14 647.356 106.112 648.1 106.952C648.868 107.768 649.78 108.416 650.836 108.896C651.892 109.352 653.032 109.58 654.256 109.58C656.272 109.58 657.988 108.956 659.404 107.708C660.82 106.436 661.66 104.84 661.924 102.92H654.4V99.248H666.424V100.652ZM670.916 109.292L673.256 106.124C674.864 107.444 676.316 108.392 677.612 108.968C678.908 109.52 680.276 109.796 681.716 109.796C683.372 109.796 684.728 109.424 685.784 108.68C686.84 107.912 687.368 106.952 687.368 105.8C687.368 104.768 687.02 103.988 686.324 103.46C685.628 102.932 684.452 102.512 682.796 102.2L678.152 101.408C675.992 101.024 674.372 100.292 673.292 99.212C672.212 98.132 671.672 96.728 671.672 95C671.672 92.744 672.512 90.92 674.192 89.528C675.896 88.136 678.152 87.44 680.96 87.44C682.832 87.44 684.62 87.728 686.324 88.304C688.052 88.856 689.636 89.66 691.076 90.716L688.88 93.956C687.632 92.996 686.324 92.276 684.956 91.796C683.588 91.292 682.208 91.04 680.816 91.04C679.304 91.04 678.092 91.376 677.18 92.048C676.268 92.72 675.812 93.572 675.812 94.604C675.812 95.492 676.112 96.188 676.712 96.692C677.336 97.196 678.332 97.556 679.7 97.772L684.164 98.564C686.684 98.996 688.556 99.788 689.78 100.94C691.004 102.068 691.616 103.58 691.616 105.476C691.616 106.628 691.364 107.696 690.86 108.68C690.38 109.64 689.696 110.468 688.808 111.164C687.92 111.836 686.852 112.376 685.604 112.784C684.356 113.168 682.988 113.36 681.5 113.36C679.532 113.36 677.672 113.024 675.92 112.352C674.168 111.656 672.5 110.636 670.916 109.292Z" fill="white"/>
<circle cx="363" cy="100" r="99" fill="#579DCC" stroke="#084B83" stroke-width="2"/>
<path d="M310.024 113V87.8H328.132V91.472H314.344V98.672H323.848V102.272H314.344V113H310.024ZM357.535 100.4C357.535 102.2 357.199 103.904 356.527 105.512C355.879 107.096 354.979 108.476 353.827 109.652C352.699 110.804 351.355 111.716 349.795 112.388C348.235 113.06 346.567 113.396 344.791 113.396C343.015 113.396 341.347 113.06 339.787 112.388C338.227 111.716 336.871 110.804 335.719 109.652C334.591 108.476 333.691 107.096 333.019 105.512C332.371 103.904 332.047 102.2 332.047 100.4C332.047 98.6 332.371 96.908 333.019 95.324C333.691 93.716 334.591 92.336 335.719 91.184C336.871 90.008 338.227 89.084 339.787 88.412C341.347 87.74 343.015 87.404 344.791 87.404C346.567 87.404 348.235 87.74 349.795 88.412C351.355 89.084 352.699 90.008 353.827 91.184C354.979 92.336 355.879 93.716 356.527 95.324C357.199 96.908 357.535 98.6 357.535 100.4ZM353.107 100.4C353.107 99.104 352.891 97.904 352.459 96.8C352.051 95.672 351.475 94.7 350.731 93.884C349.987 93.068 349.111 92.432 348.103 91.976C347.095 91.496 346.003 91.256 344.827 91.256C343.651 91.256 342.547 91.496 341.515 91.976C340.507 92.432 339.631 93.068 338.887 93.884C338.143 94.7 337.555 95.672 337.123 96.8C336.691 97.904 336.475 99.104 336.475 100.4C336.475 101.696 336.691 102.908 337.123 104.036C337.555 105.14 338.143 106.1 338.887 106.916C339.631 107.708 340.507 108.344 341.515 108.824C342.547 109.28 343.651 109.508 344.827 109.508C346.003 109.508 347.095 109.28 348.103 108.824C349.111 108.344 349.987 107.708 350.731 106.916C351.475 106.1 352.051 105.14 352.459 104.036C352.891 102.908 353.107 101.696 353.107 100.4ZM388.515 100.4C388.515 102.2 388.179 103.904 387.507 105.512C386.859 107.096 385.959 108.476 384.807 109.652C383.679 110.804 382.335 111.716 380.775 112.388C379.215 113.06 377.547 113.396 375.771 113.396C373.995 113.396 372.327 113.06 370.767 112.388C369.207 111.716 367.851 110.804 366.699 109.652C365.571 108.476 364.671 107.096 363.999 105.512C363.351 103.904 363.027 102.2 363.027 100.4C363.027 98.6 363.351 96.908 363.999 95.324C364.671 93.716 365.571 92.336 366.699 91.184C367.851 90.008 369.207 89.084 370.767 88.412C372.327 87.74 373.995 87.404 375.771 87.404C377.547 87.404 379.215 87.74 380.775 88.412C382.335 89.084 383.679 90.008 384.807 91.184C385.959 92.336 386.859 93.716 387.507 95.324C388.179 96.908 388.515 98.6 388.515 100.4ZM384.087 100.4C384.087 99.104 383.871 97.904 383.439 96.8C383.031 95.672 382.455 94.7 381.711 93.884C380.967 93.068 380.091 92.432 379.083 91.976C378.075 91.496 376.983 91.256 375.807 91.256C374.631 91.256 373.527 91.496 372.495 91.976C371.487 92.432 370.611 93.068 369.867 93.884C369.123 94.7 368.535 95.672 368.103 96.8C367.671 97.904 367.455 99.104 367.455 100.4C367.455 101.696 367.671 102.908 368.103 104.036C368.535 105.14 369.123 106.1 369.867 106.916C370.611 107.708 371.487 108.344 372.495 108.824C373.527 109.28 374.631 109.508 375.807 109.508C376.983 109.508 378.075 109.28 379.083 108.824C380.091 108.344 380.967 107.708 381.711 106.916C382.455 106.1 383.031 105.14 383.439 104.036C383.871 102.908 384.087 101.696 384.087 100.4ZM395.158 113V87.8H404.374C406.174 87.8 407.854 88.124 409.414 88.772C410.974 89.42 412.306 90.308 413.41 91.436C414.538 92.564 415.414 93.908 416.038 95.468C416.686 97.004 417.01 98.66 417.01 100.436C417.01 102.212 416.686 103.868 416.038 105.404C415.414 106.94 414.538 108.272 413.41 109.4C412.306 110.504 410.974 111.38 409.414 112.028C407.854 112.676 406.174 113 404.374 113H395.158ZM404.482 91.544H399.478V109.256H404.482C405.61 109.256 406.666 109.028 407.65 108.572C408.634 108.116 409.486 107.504 410.206 106.736C410.926 105.944 411.49 105.008 411.898 103.928C412.33 102.848 412.546 101.684 412.546 100.436C412.546 99.188 412.33 98.024 411.898 96.944C411.49 95.84 410.926 94.892 410.206 94.1C409.486 93.308 408.634 92.684 407.65 92.228C406.666 91.772 405.61 91.544 404.482 91.544Z" fill="white"/>
<circle cx="889" cy="100" r="99" fill="#579DCC" stroke="#084B83" stroke-width="2"/>
<path d="M821.024 113V87.8H839.06V91.472H825.344V98.492H834.92V102.092H825.344V109.328H839.204V113H821.024ZM853.117 113L843.325 87.8H847.969L855.709 108.644L863.521 87.8H867.985L858.121 113H853.117ZM873.034 113V87.8H891.07V91.472H877.354V98.492H886.93V102.092H877.354V109.328H891.214V113H873.034ZM897.897 87.8H902.109L915.249 106.088L915.177 87.8H919.245V113H915.393L901.893 94.208L901.965 113H897.897V87.8ZM924.959 91.544V87.8H946.127V91.544H937.739V113H933.419V91.544H924.959ZM950.067 109.292L952.407 106.124C954.015 107.444 955.467 108.392 956.763 108.968C958.059 109.52 959.427 109.796 960.867 109.796C962.523 109.796 963.879 109.424 964.935 108.68C965.991 107.912 966.519 106.952 966.519 105.8C966.519 104.768 966.171 103.988 965.475 103.46C964.779 102.932 963.603 102.512 961.947 102.2L957.303 101.408C955.143 101.024 953.523 100.292 952.443 99.212C951.363 98.132 950.823 96.728 950.823 95C950.823 92.744 951.663 90.92 953.343 89.528C955.047 88.136 957.303 87.44 960.111 87.44C961.983 87.44 963.771 87.728 965.475 88.304C967.203 88.856 968.787 89.66 970.227 90.716L968.031 93.956C966.783 92.996 965.475 92.276 964.107 91.796C962.739 91.292 961.359 91.04 959.967 91.04C958.455 91.04 957.243 91.376 956.331 92.048C955.419 92.72 954.963 93.572 954.963 94.604C954.963 95.492 955.263 96.188 955.863 96.692C956.487 97.196 957.483 97.556 958.851 97.772L963.315 98.564C965.835 98.996 967.707 99.788 968.931 100.94C970.155 102.068 970.767 103.58 970.767 105.476C970.767 106.628 970.515 107.696 970.011 108.68C969.531 109.64 968.847 110.468 967.959 111.164C967.071 111.836 966.003 112.376 964.755 112.784C963.507 113.168 962.139 113.36 960.651 113.36C958.683 113.36 956.823 113.024 955.071 112.352C953.319 111.656 951.651 110.636 950.067 109.292Z" fill="white"/>
</svg>
