<svg width="395" height="100" viewBox="0 0 395 100" fill="none" xmlns="http://www.w3.org/2000/svg">
<circle cx="345" cy="50" r="50" fill="#084B83"/>
<path d="M11.792 70H6.952L1.012 47.956H5.764L9.636 63.532L14.168 47.956H18.392L22.924 63.576L26.752 47.956H31.416L25.476 70H20.68L16.236 54.468L11.792 70ZM37.7214 70V38.54L42.6934 37.704V51.564C43.5147 50.2733 44.5121 49.2907 45.6854 48.616C46.8881 47.9413 48.2227 47.604 49.6894 47.604C51.9187 47.604 53.7374 48.352 55.1454 49.848C56.5827 51.3147 57.3014 53.192 57.3014 55.48V70H52.3294V56.888C52.3294 55.304 51.8894 54.028 51.0094 53.06C50.1294 52.092 48.9561 51.608 47.4894 51.608C46.4921 51.608 45.5827 51.8427 44.7614 52.312C43.9694 52.752 43.2801 53.3973 42.6934 54.248V70H37.7214ZM72.2188 70.352C69.9308 70.352 68.0534 69.736 66.5868 68.504C65.1494 67.2427 64.4308 65.6293 64.4308 63.664C64.4308 61.6987 65.1788 60.1293 66.6748 58.956C68.2001 57.7827 70.2534 57.196 72.8348 57.196C73.8615 57.196 74.8588 57.3133 75.8268 57.548C76.7948 57.7533 77.7775 58.0907 78.7748 58.56V56.14C78.7748 54.7027 78.3495 53.6173 77.4988 52.884C76.6481 52.1213 75.3868 51.74 73.7148 51.74C72.8054 51.74 71.8228 51.8867 70.7668 52.18C69.7108 52.444 68.5521 52.8693 67.2908 53.456L65.5308 49.848C67.1734 49.0853 68.7428 48.528 70.2388 48.176C71.7348 47.7947 73.2161 47.604 74.6828 47.604C77.5281 47.604 79.7428 48.308 81.3268 49.716C82.9108 51.0947 83.7028 53.06 83.7028 55.612V70H78.7748V67.756C77.7775 68.6653 76.7508 69.3253 75.6948 69.736C74.6388 70.1467 73.4801 70.352 72.2188 70.352ZM69.0948 63.576C69.0948 64.5733 69.5054 65.38 70.3268 65.996C71.1481 66.5827 72.2335 66.876 73.5828 66.876C74.5801 66.876 75.5041 66.7293 76.3548 66.436C77.2348 66.1427 78.0415 65.688 78.7748 65.072V61.464C77.9828 61.0827 77.1761 60.8187 76.3548 60.672C75.5335 60.496 74.6388 60.408 73.6708 60.408C72.2628 60.408 71.1481 60.7013 70.3268 61.288C69.5054 61.8453 69.0948 62.608 69.0948 63.576ZM94.0057 64.192V51.916H89.5617V47.956H94.0057V41.884L98.9777 40.828V47.956H105.138V51.916H98.9777V63.092C98.9777 64.1773 99.2123 64.9547 99.6817 65.424C100.151 65.864 100.943 66.084 102.058 66.084C102.556 66.084 103.011 66.0547 103.422 65.996C103.862 65.908 104.404 65.7613 105.05 65.556V69.736C104.404 69.9413 103.686 70.088 102.894 70.176C102.131 70.2933 101.427 70.352 100.782 70.352C98.5817 70.352 96.895 69.8387 95.7217 68.812C94.5777 67.756 94.0057 66.216 94.0057 64.192ZM110.146 67.448L112.478 64.104C113.915 65.0133 115.177 65.6587 116.262 66.04C117.347 66.4213 118.447 66.612 119.562 66.612C120.882 66.612 121.953 66.348 122.774 65.82C123.595 65.2627 124.006 64.544 124.006 63.664C124.006 62.9893 123.757 62.4613 123.258 62.08C122.789 61.6693 122.026 61.3613 120.97 61.156L117.054 60.496C114.942 60.1147 113.343 59.4253 112.258 58.428C111.202 57.4013 110.674 56.0667 110.674 54.424C110.674 52.3707 111.451 50.728 113.006 49.496C114.59 48.2347 116.658 47.604 119.21 47.604C120.735 47.604 122.202 47.824 123.61 48.264C125.047 48.6747 126.47 49.3347 127.878 50.244L125.546 53.5C124.402 52.7667 123.287 52.2387 122.202 51.916C121.117 51.564 120.017 51.388 118.902 51.388C117.758 51.388 116.834 51.6227 116.13 52.092C115.455 52.532 115.118 53.1627 115.118 53.984C115.118 54.688 115.338 55.216 115.778 55.568C116.247 55.92 117.069 56.1987 118.242 56.404L122.114 57.108C124.314 57.5187 125.942 58.2373 126.998 59.264C128.083 60.2907 128.626 61.6253 128.626 63.268C128.626 64.2653 128.391 65.204 127.922 66.084C127.482 66.964 126.851 67.7267 126.03 68.372C125.238 69.0173 124.285 69.5307 123.17 69.912C122.085 70.264 120.911 70.44 119.65 70.44C117.743 70.44 115.969 70.1907 114.326 69.692C112.713 69.164 111.319 68.416 110.146 67.448ZM142.284 70.352C139.996 70.352 138.118 69.736 136.652 68.504C135.214 67.2427 134.496 65.6293 134.496 63.664C134.496 61.6987 135.244 60.1293 136.74 58.956C138.265 57.7827 140.318 57.196 142.9 57.196C143.926 57.196 144.924 57.3133 145.892 57.548C146.86 57.7533 147.842 58.0907 148.84 58.56V56.14C148.84 54.7027 148.414 53.6173 147.564 52.884C146.713 52.1213 145.452 51.74 143.78 51.74C142.87 51.74 141.888 51.8867 140.832 52.18C139.776 52.444 138.617 52.8693 137.356 53.456L135.596 49.848C137.238 49.0853 138.808 48.528 140.304 48.176C141.8 47.7947 143.281 47.604 144.748 47.604C147.593 47.604 149.808 48.308 151.392 49.716C152.976 51.0947 153.768 53.06 153.768 55.612V70H148.84V67.756C147.842 68.6653 146.816 69.3253 145.76 69.736C144.704 70.1467 143.545 70.352 142.284 70.352ZM139.16 63.576C139.16 64.5733 139.57 65.38 140.392 65.996C141.213 66.5827 142.298 66.876 143.648 66.876C144.645 66.876 145.569 66.7293 146.42 66.436C147.3 66.1427 148.106 65.688 148.84 65.072V61.464C148.048 61.0827 147.241 60.8187 146.42 60.672C145.598 60.496 144.704 60.408 143.736 60.408C142.328 60.408 141.213 60.7013 140.392 61.288C139.57 61.8453 139.16 62.608 139.16 63.576ZM161.987 70V47.956H166.959V52.752C167.546 51.08 168.352 49.804 169.379 48.924C170.435 48.0147 171.652 47.56 173.031 47.56C173.442 47.5893 173.808 47.6333 174.131 47.692C174.454 47.7507 174.806 47.8533 175.187 48V52.356C174.806 52.18 174.366 52.048 173.867 51.96C173.398 51.872 172.928 51.828 172.459 51.828C171.286 51.828 170.215 52.1507 169.247 52.796C168.279 53.4413 167.516 54.336 166.959 55.48V70H161.987ZM179.374 59C179.374 57.3867 179.653 55.8907 180.21 54.512C180.797 53.104 181.574 51.9013 182.542 50.904C183.54 49.8773 184.713 49.0707 186.062 48.484C187.441 47.8973 188.908 47.604 190.462 47.604C192.046 47.604 193.513 47.8973 194.862 48.484C196.212 49.0707 197.385 49.8773 198.382 50.904C199.38 51.9013 200.157 53.104 200.714 54.512C201.272 55.8907 201.55 57.3867 201.55 59C201.55 60.6133 201.257 62.124 200.67 63.532C200.113 64.94 199.336 66.1573 198.338 67.184C197.37 68.1813 196.197 68.9733 194.818 69.56C193.469 70.1467 192.017 70.44 190.462 70.44C188.908 70.44 187.441 70.1467 186.062 69.56C184.713 68.9733 183.54 68.1667 182.542 67.14C181.574 66.1133 180.797 64.9107 180.21 63.532C179.653 62.124 179.374 60.6133 179.374 59ZM190.462 66.128C192.252 66.128 193.718 65.4533 194.862 64.104C196.036 62.7547 196.622 61.068 196.622 59.044C196.622 56.9613 196.036 55.2453 194.862 53.896C193.689 52.5467 192.222 51.872 190.462 51.872C188.673 51.872 187.192 52.5467 186.018 53.896C184.874 55.2453 184.302 56.9613 184.302 59.044C184.302 61.0973 184.874 62.7987 186.018 64.148C187.192 65.468 188.673 66.128 190.462 66.128ZM213.723 47.956V61.068C213.723 62.652 214.163 63.928 215.043 64.896C215.923 65.864 217.096 66.348 218.563 66.348C219.56 66.348 220.47 66.128 221.291 65.688C222.112 65.2187 222.816 64.5293 223.403 63.62V47.956H228.375V70H223.403V66.348C222.582 67.6387 221.57 68.636 220.367 69.34C219.194 70.0147 217.859 70.352 216.363 70.352C214.134 70.352 212.3 69.6187 210.863 68.152C209.455 66.6853 208.751 64.7933 208.751 62.476V47.956H213.723ZM236.693 70V47.956H241.665V51.564C242.486 50.2733 243.483 49.2907 244.657 48.616C245.859 47.9413 247.194 47.604 248.661 47.604C250.89 47.604 252.709 48.352 254.117 49.848C255.554 51.3147 256.273 53.192 256.273 55.48V70H251.301V56.888C251.301 55.304 250.861 54.028 249.981 53.06C249.101 52.092 247.927 51.608 246.461 51.608C245.463 51.608 244.554 51.8427 243.733 52.312C242.941 52.752 242.251 53.3973 241.665 54.248V70H236.693ZM280.254 70V67.052C279.491 68.0493 278.509 68.8267 277.306 69.384C276.133 69.9413 274.857 70.22 273.478 70.22C272.099 70.22 270.794 69.9267 269.562 69.34C268.33 68.7533 267.259 67.9613 266.35 66.964C265.47 65.9373 264.766 64.7493 264.238 63.4C263.739 62.0213 263.49 60.5547 263.49 59C263.49 57.4453 263.754 55.9787 264.282 54.6C264.81 53.2213 265.529 52.0333 266.438 51.036C267.377 50.0387 268.477 49.2467 269.738 48.66C270.999 48.0733 272.349 47.78 273.786 47.78C275.047 47.78 276.221 48.044 277.306 48.572C278.421 49.0707 279.389 49.7747 280.21 50.684V38.54L285.182 37.704V70H280.254ZM268.418 59C268.418 60.9947 269.049 62.6667 270.31 64.016C271.571 65.3653 273.126 66.04 274.974 66.04C276.03 66.04 276.998 65.8347 277.878 65.424C278.787 65.0133 279.565 64.412 280.21 63.62V54.336C279.565 53.6027 278.787 53.0307 277.878 52.62C276.969 52.18 276.001 51.96 274.974 51.96C273.097 51.96 271.527 52.6347 270.266 53.984C269.034 55.304 268.418 56.976 268.418 59Z" fill="#084B83"/>
<path d="M308.825 65.688C310.409 65.688 311.905 65.3507 313.313 64.676C314.751 63.972 315.997 62.9747 317.053 61.684L320.529 65.028C319.092 66.7 317.317 68.02 315.205 68.988C313.123 69.956 310.937 70.44 308.649 70.44C306.42 70.44 304.323 70.0293 302.357 69.208C300.421 68.3867 298.735 67.272 297.297 65.864C295.889 64.4267 294.775 62.74 293.953 60.804C293.132 58.868 292.721 56.8 292.721 54.6C292.721 52.3707 293.132 50.288 293.953 48.352C294.775 46.416 295.889 44.744 297.297 43.336C298.735 41.8987 300.421 40.7693 302.357 39.948C304.323 39.1267 306.42 38.716 308.649 38.716C310.996 38.716 313.225 39.2 315.337 40.168C317.479 41.136 319.253 42.4707 320.661 44.172L317.097 47.692C316.012 46.3427 314.736 45.3013 313.269 44.568C311.803 43.8053 310.263 43.424 308.649 43.424C307.153 43.424 305.76 43.7173 304.469 44.304C303.179 44.8613 302.064 45.6387 301.125 46.636C300.216 47.6333 299.483 48.8213 298.925 50.2C298.397 51.5493 298.133 53.016 298.133 54.6C298.133 56.1547 298.397 57.6213 298.925 59C299.483 60.3493 300.231 61.5227 301.169 62.52C302.137 63.488 303.281 64.2653 304.601 64.852C305.921 65.4093 307.329 65.688 308.825 65.688ZM328.17 70V39.2H350.214V43.688H333.45V52.268H345.154V56.668H333.45V65.512H350.39V70H328.17ZM355.962 43.776V39.2H381.834V43.776H371.582V70H366.302V43.776H355.962Z" fill="white"/>
</svg>
