<svg width="744" height="216" viewBox="0 0 744 216" fill="none" xmlns="http://www.w3.org/2000/svg">
<circle cx="383" cy="83" r="100" fill="#084B83"/>
<path d="M11.792 99H6.952L1.012 76.956H5.764L9.636 92.532L14.168 76.956H18.392L22.924 92.576L26.752 76.956H31.416L25.476 99H20.68L16.236 83.468L11.792 99ZM37.7214 99V67.54L42.6934 66.704V80.564C43.5147 79.2733 44.5121 78.2907 45.6854 77.616C46.8881 76.9413 48.2227 76.604 49.6894 76.604C51.9187 76.604 53.7374 77.352 55.1454 78.848C56.5827 80.3147 57.3014 82.192 57.3014 84.48V99H52.3294V85.888C52.3294 84.304 51.8894 83.028 51.0094 82.06C50.1294 81.092 48.9561 80.608 47.4894 80.608C46.4921 80.608 45.5827 80.8427 44.7614 81.312C43.9694 81.752 43.2801 82.3973 42.6934 83.248V99H37.7214ZM72.2188 99.352C69.9308 99.352 68.0534 98.736 66.5868 97.504C65.1494 96.2427 64.4308 94.6293 64.4308 92.664C64.4308 90.6987 65.1788 89.1293 66.6748 87.956C68.2001 86.7827 70.2534 86.196 72.8348 86.196C73.8615 86.196 74.8588 86.3133 75.8268 86.548C76.7948 86.7533 77.7775 87.0907 78.7748 87.56V85.14C78.7748 83.7027 78.3495 82.6173 77.4988 81.884C76.6481 81.1213 75.3868 80.74 73.7148 80.74C72.8054 80.74 71.8228 80.8867 70.7668 81.18C69.7108 81.444 68.5521 81.8693 67.2908 82.456L65.5308 78.848C67.1734 78.0853 68.7428 77.528 70.2388 77.176C71.7348 76.7947 73.2161 76.604 74.6828 76.604C77.5281 76.604 79.7428 77.308 81.3268 78.716C82.9108 80.0947 83.7028 82.06 83.7028 84.612V99H78.7748V96.756C77.7775 97.6653 76.7508 98.3253 75.6948 98.736C74.6388 99.1467 73.4801 99.352 72.2188 99.352ZM69.0948 92.576C69.0948 93.5733 69.5054 94.38 70.3268 94.996C71.1481 95.5827 72.2335 95.876 73.5828 95.876C74.5801 95.876 75.5041 95.7293 76.3548 95.436C77.2348 95.1427 78.0415 94.688 78.7748 94.072V90.464C77.9828 90.0827 77.1761 89.8187 76.3548 89.672C75.5335 89.496 74.6388 89.408 73.6708 89.408C72.2628 89.408 71.1481 89.7013 70.3268 90.288C69.5054 90.8453 69.0948 91.608 69.0948 92.576ZM94.0057 93.192V80.916H89.5617V76.956H94.0057V70.884L98.9777 69.828V76.956H105.138V80.916H98.9777V92.092C98.9777 93.1773 99.2123 93.9547 99.6817 94.424C100.151 94.864 100.943 95.084 102.058 95.084C102.556 95.084 103.011 95.0547 103.422 94.996C103.862 94.908 104.404 94.7613 105.05 94.556V98.736C104.404 98.9413 103.686 99.088 102.894 99.176C102.131 99.2933 101.427 99.352 100.782 99.352C98.5817 99.352 96.895 98.8387 95.7217 97.812C94.5777 96.756 94.0057 95.216 94.0057 93.192ZM110.146 96.448L112.478 93.104C113.915 94.0133 115.177 94.6587 116.262 95.04C117.347 95.4213 118.447 95.612 119.562 95.612C120.882 95.612 121.953 95.348 122.774 94.82C123.595 94.2627 124.006 93.544 124.006 92.664C124.006 91.9893 123.757 91.4613 123.258 91.08C122.789 90.6693 122.026 90.3613 120.97 90.156L117.054 89.496C114.942 89.1147 113.343 88.4253 112.258 87.428C111.202 86.4013 110.674 85.0667 110.674 83.424C110.674 81.3707 111.451 79.728 113.006 78.496C114.59 77.2347 116.658 76.604 119.21 76.604C120.735 76.604 122.202 76.824 123.61 77.264C125.047 77.6747 126.47 78.3347 127.878 79.244L125.546 82.5C124.402 81.7667 123.287 81.2387 122.202 80.916C121.117 80.564 120.017 80.388 118.902 80.388C117.758 80.388 116.834 80.6227 116.13 81.092C115.455 81.532 115.118 82.1627 115.118 82.984C115.118 83.688 115.338 84.216 115.778 84.568C116.247 84.92 117.069 85.1987 118.242 85.404L122.114 86.108C124.314 86.5187 125.942 87.2373 126.998 88.264C128.083 89.2907 128.626 90.6253 128.626 92.268C128.626 93.2653 128.391 94.204 127.922 95.084C127.482 95.964 126.851 96.7267 126.03 97.372C125.238 98.0173 124.285 98.5307 123.17 98.912C122.085 99.264 120.911 99.44 119.65 99.44C117.743 99.44 115.969 99.1907 114.326 98.692C112.713 98.164 111.319 97.416 110.146 96.448ZM142.284 99.352C139.996 99.352 138.118 98.736 136.652 97.504C135.214 96.2427 134.496 94.6293 134.496 92.664C134.496 90.6987 135.244 89.1293 136.74 87.956C138.265 86.7827 140.318 86.196 142.9 86.196C143.926 86.196 144.924 86.3133 145.892 86.548C146.86 86.7533 147.842 87.0907 148.84 87.56V85.14C148.84 83.7027 148.414 82.6173 147.564 81.884C146.713 81.1213 145.452 80.74 143.78 80.74C142.87 80.74 141.888 80.8867 140.832 81.18C139.776 81.444 138.617 81.8693 137.356 82.456L135.596 78.848C137.238 78.0853 138.808 77.528 140.304 77.176C141.8 76.7947 143.281 76.604 144.748 76.604C147.593 76.604 149.808 77.308 151.392 78.716C152.976 80.0947 153.768 82.06 153.768 84.612V99H148.84V96.756C147.842 97.6653 146.816 98.3253 145.76 98.736C144.704 99.1467 143.545 99.352 142.284 99.352ZM139.16 92.576C139.16 93.5733 139.57 94.38 140.392 94.996C141.213 95.5827 142.298 95.876 143.648 95.876C144.645 95.876 145.569 95.7293 146.42 95.436C147.3 95.1427 148.106 94.688 148.84 94.072V90.464C148.048 90.0827 147.241 89.8187 146.42 89.672C145.598 89.496 144.704 89.408 143.736 89.408C142.328 89.408 141.213 89.7013 140.392 90.288C139.57 90.8453 139.16 91.608 139.16 92.576ZM161.987 99V76.956H166.959V81.752C167.546 80.08 168.352 78.804 169.379 77.924C170.435 77.0147 171.652 76.56 173.031 76.56C173.442 76.5893 173.808 76.6333 174.131 76.692C174.454 76.7507 174.806 76.8533 175.187 77V81.356C174.806 81.18 174.366 81.048 173.867 80.96C173.398 80.872 172.928 80.828 172.459 80.828C171.286 80.828 170.215 81.1507 169.247 81.796C168.279 82.4413 167.516 83.336 166.959 84.48V99H161.987ZM179.374 88C179.374 86.3867 179.653 84.8907 180.21 83.512C180.797 82.104 181.574 80.9013 182.542 79.904C183.54 78.8773 184.713 78.0707 186.062 77.484C187.441 76.8973 188.908 76.604 190.462 76.604C192.046 76.604 193.513 76.8973 194.862 77.484C196.212 78.0707 197.385 78.8773 198.382 79.904C199.38 80.9013 200.157 82.104 200.714 83.512C201.272 84.8907 201.55 86.3867 201.55 88C201.55 89.6133 201.257 91.124 200.67 92.532C200.113 93.94 199.336 95.1573 198.338 96.184C197.37 97.1813 196.197 97.9733 194.818 98.56C193.469 99.1467 192.017 99.44 190.462 99.44C188.908 99.44 187.441 99.1467 186.062 98.56C184.713 97.9733 183.54 97.1667 182.542 96.14C181.574 95.1133 180.797 93.9107 180.21 92.532C179.653 91.124 179.374 89.6133 179.374 88ZM190.462 95.128C192.252 95.128 193.718 94.4533 194.862 93.104C196.036 91.7547 196.622 90.068 196.622 88.044C196.622 85.9613 196.036 84.2453 194.862 82.896C193.689 81.5467 192.222 80.872 190.462 80.872C188.673 80.872 187.192 81.5467 186.018 82.896C184.874 84.2453 184.302 85.9613 184.302 88.044C184.302 90.0973 184.874 91.7987 186.018 93.148C187.192 94.468 188.673 95.128 190.462 95.128ZM213.723 76.956V90.068C213.723 91.652 214.163 92.928 215.043 93.896C215.923 94.864 217.096 95.348 218.563 95.348C219.56 95.348 220.47 95.128 221.291 94.688C222.112 94.2187 222.816 93.5293 223.403 92.62V76.956H228.375V99H223.403V95.348C222.582 96.6387 221.57 97.636 220.367 98.34C219.194 99.0147 217.859 99.352 216.363 99.352C214.134 99.352 212.3 98.6187 210.863 97.152C209.455 95.6853 208.751 93.7933 208.751 91.476V76.956H213.723ZM236.693 99V76.956H241.665V80.564C242.486 79.2733 243.483 78.2907 244.657 77.616C245.859 76.9413 247.194 76.604 248.661 76.604C250.89 76.604 252.709 77.352 254.117 78.848C255.554 80.3147 256.273 82.192 256.273 84.48V99H251.301V85.888C251.301 84.304 250.861 83.028 249.981 82.06C249.101 81.092 247.927 80.608 246.461 80.608C245.463 80.608 244.554 80.8427 243.733 81.312C242.941 81.752 242.251 82.3973 241.665 83.248V99H236.693ZM280.254 99V96.052C279.491 97.0493 278.509 97.8267 277.306 98.384C276.133 98.9413 274.857 99.22 273.478 99.22C272.099 99.22 270.794 98.9267 269.562 98.34C268.33 97.7533 267.259 96.9613 266.35 95.964C265.47 94.9373 264.766 93.7493 264.238 92.4C263.739 91.0213 263.49 89.5547 263.49 88C263.49 86.4453 263.754 84.9787 264.282 83.6C264.81 82.2213 265.529 81.0333 266.438 80.036C267.377 79.0387 268.477 78.2467 269.738 77.66C270.999 77.0733 272.349 76.78 273.786 76.78C275.047 76.78 276.221 77.044 277.306 77.572C278.421 78.0707 279.389 78.7747 280.21 79.684V67.54L285.182 66.704V99H280.254ZM268.418 88C268.418 89.9947 269.049 91.6667 270.31 93.016C271.571 94.3653 273.126 95.04 274.974 95.04C276.03 95.04 276.998 94.8347 277.878 94.424C278.787 94.0133 279.565 93.412 280.21 92.62V83.336C279.565 82.6027 278.787 82.0307 277.878 81.62C276.969 81.18 276.001 80.96 274.974 80.96C273.097 80.96 271.527 81.6347 270.266 82.984C269.034 84.304 268.418 85.976 268.418 88Z" fill="#084B83"/>
<path d="M308.825 94.688C310.409 94.688 311.905 94.3507 313.313 93.676C314.751 92.972 315.997 91.9747 317.053 90.684L320.529 94.028C319.092 95.7 317.317 97.02 315.205 97.988C313.123 98.956 310.937 99.44 308.649 99.44C306.42 99.44 304.323 99.0293 302.357 98.208C300.421 97.3867 298.735 96.272 297.297 94.864C295.889 93.4267 294.775 91.74 293.953 89.804C293.132 87.868 292.721 85.8 292.721 83.6C292.721 81.3707 293.132 79.288 293.953 77.352C294.775 75.416 295.889 73.744 297.297 72.336C298.735 70.8987 300.421 69.7693 302.357 68.948C304.323 68.1267 306.42 67.716 308.649 67.716C310.996 67.716 313.225 68.2 315.337 69.168C317.479 70.136 319.253 71.4707 320.661 73.172L317.097 76.692C316.012 75.3427 314.736 74.3013 313.269 73.568C311.803 72.8053 310.263 72.424 308.649 72.424C307.153 72.424 305.76 72.7173 304.469 73.304C303.179 73.8613 302.064 74.6387 301.125 75.636C300.216 76.6333 299.483 77.8213 298.925 79.2C298.397 80.5493 298.133 82.016 298.133 83.6C298.133 85.1547 298.397 86.6213 298.925 88C299.483 89.3493 300.231 90.5227 301.169 91.52C302.137 92.488 303.281 93.2653 304.601 93.852C305.921 94.4093 307.329 94.688 308.825 94.688ZM328.17 99V68.2H350.214V72.688H333.45V81.268H345.154V85.668H333.45V94.512H350.39V99H328.17ZM355.962 72.776V68.2H381.834V72.776H371.582V99H366.302V72.776H355.962Z" fill="white"/>
<circle cx="565" cy="166" r="50" fill="#084B83"/>
<path d="M577.916 78.2H590.368C593.184 78.2 595.428 78.9187 597.1 80.356C598.801 81.764 599.652 83.656 599.652 86.032C599.652 87.704 599.153 89.156 598.156 90.388C597.188 91.62 595.868 92.4853 594.196 92.984C596.22 93.4533 597.833 94.348 599.036 95.668C600.239 96.988 600.84 98.5867 600.84 100.464C600.84 103.016 599.916 105.084 598.068 106.668C596.249 108.223 593.844 109 590.852 109H577.916V78.2ZM590.104 81.104H581.304V91.664H590.104C591.952 91.664 593.433 91.18 594.548 90.212C595.692 89.244 596.264 87.968 596.264 86.384C596.264 84.8 595.692 83.524 594.548 82.556C593.433 81.588 591.952 81.104 590.104 81.104ZM590.5 106.096C592.583 106.096 594.255 105.568 595.516 104.512C596.777 103.427 597.408 102.004 597.408 100.244C597.408 98.484 596.777 97.076 595.516 96.02C594.284 94.964 592.612 94.436 590.5 94.436H581.304V106.096H590.5ZM611.75 109V78.2H615.138V106.008H632.518V109H611.75ZM669.643 93.6C669.643 95.8 669.247 97.8827 668.455 99.848C667.663 101.784 666.578 103.471 665.199 104.908C663.82 106.316 662.192 107.431 660.315 108.252C658.467 109.073 656.472 109.484 654.331 109.484C652.219 109.484 650.224 109.073 648.347 108.252C646.47 107.431 644.842 106.316 643.463 104.908C642.084 103.471 640.999 101.784 640.207 99.848C639.415 97.8827 639.019 95.8 639.019 93.6C639.019 91.4 639.415 89.332 640.207 87.396C640.999 85.4307 642.084 83.744 643.463 82.336C644.842 80.8987 646.47 79.7693 648.347 78.948C650.224 78.1267 652.219 77.716 654.331 77.716C656.472 77.716 658.467 78.1267 660.315 78.948C662.192 79.7693 663.82 80.8987 665.199 82.336C666.578 83.744 667.663 85.4307 668.455 87.396C669.247 89.332 669.643 91.4 669.643 93.6ZM666.211 93.6C666.211 91.8107 665.903 90.1387 665.287 88.584C664.671 87 663.835 85.636 662.779 84.492C661.723 83.348 660.462 82.4533 658.995 81.808C657.558 81.1333 656.003 80.796 654.331 80.796C652.659 80.796 651.09 81.1333 649.623 81.808C648.186 82.4533 646.939 83.348 645.883 84.492C644.827 85.636 643.991 87 643.375 88.584C642.759 90.1387 642.451 91.8107 642.451 93.6C642.451 95.3893 642.759 97.076 643.375 98.66C643.991 100.215 644.827 101.564 645.883 102.708C646.939 103.852 648.186 104.761 649.623 105.436C651.09 106.081 652.659 106.404 654.331 106.404C656.003 106.404 657.558 106.081 658.995 105.436C660.462 104.761 661.723 103.852 662.779 102.708C663.835 101.564 664.671 100.215 665.287 98.66C665.903 97.076 666.211 95.3893 666.211 93.6ZM709.268 94.26C709.268 96.372 708.887 98.3667 708.124 100.244C707.391 102.092 706.364 103.705 705.044 105.084C703.753 106.433 702.213 107.504 700.424 108.296C698.635 109.088 696.699 109.484 694.616 109.484C692.445 109.484 690.407 109.073 688.5 108.252C686.593 107.401 684.936 106.272 683.528 104.864C682.12 103.427 681.005 101.74 680.184 99.804C679.392 97.868 678.996 95.8 678.996 93.6C678.996 91.4 679.392 89.332 680.184 87.396C681.005 85.46 682.105 83.788 683.484 82.38C684.892 80.9427 686.549 79.8133 688.456 78.992C690.363 78.1413 692.401 77.716 694.572 77.716C696.889 77.716 699.104 78.1413 701.216 78.992C703.328 79.8427 705.117 81.104 706.584 82.776L704.296 85.064C703.152 83.7147 701.7 82.6733 699.94 81.94C698.209 81.1773 696.42 80.796 694.572 80.796C692.841 80.796 691.228 81.1333 689.732 81.808C688.265 82.4533 686.989 83.348 685.904 84.492C684.819 85.636 683.968 87 683.352 88.584C682.736 90.1387 682.428 91.8107 682.428 93.6C682.428 95.3893 682.736 97.076 683.352 98.66C683.997 100.215 684.848 101.579 685.904 102.752C686.989 103.896 688.28 104.805 689.776 105.48C691.272 106.125 692.871 106.448 694.572 106.448C696.097 106.448 697.52 106.184 698.84 105.656C700.16 105.099 701.304 104.351 702.272 103.412C703.269 102.473 704.076 101.359 704.692 100.068C705.337 98.7773 705.719 97.384 705.836 95.888H695.452V92.896H709.268V94.26ZM717.312 104.204L719.38 101.74C721.228 103.471 722.959 104.703 724.572 105.436C726.215 106.169 728.034 106.536 730.028 106.536C732.404 106.536 734.37 105.949 735.924 104.776C737.479 103.573 738.256 102.092 738.256 100.332C738.256 98.8067 737.728 97.6333 736.672 96.812C735.646 95.9907 733.886 95.36 731.392 94.92L726.42 94.084C723.604 93.5853 721.536 92.7347 720.216 91.532C718.926 90.3 718.28 88.6573 718.28 86.604C718.28 84.0227 719.263 81.9107 721.228 80.268C723.194 78.6253 725.731 77.804 728.84 77.804C731.128 77.804 733.255 78.1267 735.22 78.772C737.186 79.388 739.122 80.3707 741.028 81.72L739.268 84.36C737.684 83.1867 735.998 82.2773 734.208 81.632C732.448 80.9867 730.674 80.664 728.884 80.664C726.743 80.664 724.983 81.2067 723.604 82.292C722.226 83.348 721.536 84.668 721.536 86.252C721.536 87.6013 721.991 88.6573 722.9 89.42C723.81 90.1827 725.291 90.7253 727.344 91.048L732.272 91.884C735.528 92.4707 737.904 93.424 739.4 94.744C740.896 96.064 741.644 97.868 741.644 100.156C741.644 101.476 741.351 102.708 740.764 103.852C740.178 104.996 739.356 105.979 738.3 106.8C737.274 107.621 736.042 108.267 734.604 108.736C733.167 109.205 731.612 109.44 729.94 109.44C727.535 109.44 725.291 109.015 723.208 108.164C721.155 107.284 719.19 105.964 717.312 104.204Z" fill="#084B83"/>
</svg>
