<svg width="761" height="224" viewBox="0 0 761 224" fill="none" xmlns="http://www.w3.org/2000/svg">
<circle cx="383" cy="87" r="100" fill="#084B83"/>
<path d="M11.792 103H6.952L1.012 80.956H5.764L9.636 96.532L14.168 80.956H18.392L22.924 96.576L26.752 80.956H31.416L25.476 103H20.68L16.236 87.468L11.792 103ZM37.7214 103V71.54L42.6934 70.704V84.564C43.5147 83.2733 44.5121 82.2907 45.6854 81.616C46.8881 80.9413 48.2227 80.604 49.6894 80.604C51.9187 80.604 53.7374 81.352 55.1454 82.848C56.5827 84.3147 57.3014 86.192 57.3014 88.48V103H52.3294V89.888C52.3294 88.304 51.8894 87.028 51.0094 86.06C50.1294 85.092 48.9561 84.608 47.4894 84.608C46.4921 84.608 45.5827 84.8427 44.7614 85.312C43.9694 85.752 43.2801 86.3973 42.6934 87.248V103H37.7214ZM72.2188 103.352C69.9308 103.352 68.0534 102.736 66.5868 101.504C65.1494 100.243 64.4308 98.6293 64.4308 96.664C64.4308 94.6987 65.1788 93.1293 66.6748 91.956C68.2001 90.7827 70.2534 90.196 72.8348 90.196C73.8615 90.196 74.8588 90.3133 75.8268 90.548C76.7948 90.7533 77.7775 91.0907 78.7748 91.56V89.14C78.7748 87.7027 78.3495 86.6173 77.4988 85.884C76.6481 85.1213 75.3868 84.74 73.7148 84.74C72.8054 84.74 71.8228 84.8867 70.7668 85.18C69.7108 85.444 68.5521 85.8693 67.2908 86.456L65.5308 82.848C67.1734 82.0853 68.7428 81.528 70.2388 81.176C71.7348 80.7947 73.2161 80.604 74.6828 80.604C77.5281 80.604 79.7428 81.308 81.3268 82.716C82.9108 84.0947 83.7028 86.06 83.7028 88.612V103H78.7748V100.756C77.7775 101.665 76.7508 102.325 75.6948 102.736C74.6388 103.147 73.4801 103.352 72.2188 103.352ZM69.0948 96.576C69.0948 97.5733 69.5054 98.38 70.3268 98.996C71.1481 99.5827 72.2335 99.876 73.5828 99.876C74.5801 99.876 75.5041 99.7293 76.3548 99.436C77.2348 99.1427 78.0415 98.688 78.7748 98.072V94.464C77.9828 94.0827 77.1761 93.8187 76.3548 93.672C75.5335 93.496 74.6388 93.408 73.6708 93.408C72.2628 93.408 71.1481 93.7013 70.3268 94.288C69.5054 94.8453 69.0948 95.608 69.0948 96.576ZM94.0057 97.192V84.916H89.5617V80.956H94.0057V74.884L98.9777 73.828V80.956H105.138V84.916H98.9777V96.092C98.9777 97.1773 99.2123 97.9547 99.6817 98.424C100.151 98.864 100.943 99.084 102.058 99.084C102.556 99.084 103.011 99.0547 103.422 98.996C103.862 98.908 104.404 98.7613 105.05 98.556V102.736C104.404 102.941 103.686 103.088 102.894 103.176C102.131 103.293 101.427 103.352 100.782 103.352C98.5817 103.352 96.895 102.839 95.7217 101.812C94.5777 100.756 94.0057 99.216 94.0057 97.192ZM110.146 100.448L112.478 97.104C113.915 98.0133 115.177 98.6587 116.262 99.04C117.347 99.4213 118.447 99.612 119.562 99.612C120.882 99.612 121.953 99.348 122.774 98.82C123.595 98.2627 124.006 97.544 124.006 96.664C124.006 95.9893 123.757 95.4613 123.258 95.08C122.789 94.6693 122.026 94.3613 120.97 94.156L117.054 93.496C114.942 93.1147 113.343 92.4253 112.258 91.428C111.202 90.4013 110.674 89.0667 110.674 87.424C110.674 85.3707 111.451 83.728 113.006 82.496C114.59 81.2347 116.658 80.604 119.21 80.604C120.735 80.604 122.202 80.824 123.61 81.264C125.047 81.6747 126.47 82.3347 127.878 83.244L125.546 86.5C124.402 85.7667 123.287 85.2387 122.202 84.916C121.117 84.564 120.017 84.388 118.902 84.388C117.758 84.388 116.834 84.6227 116.13 85.092C115.455 85.532 115.118 86.1627 115.118 86.984C115.118 87.688 115.338 88.216 115.778 88.568C116.247 88.92 117.069 89.1987 118.242 89.404L122.114 90.108C124.314 90.5187 125.942 91.2373 126.998 92.264C128.083 93.2907 128.626 94.6253 128.626 96.268C128.626 97.2653 128.391 98.204 127.922 99.084C127.482 99.964 126.851 100.727 126.03 101.372C125.238 102.017 124.285 102.531 123.17 102.912C122.085 103.264 120.911 103.44 119.65 103.44C117.743 103.44 115.969 103.191 114.326 102.692C112.713 102.164 111.319 101.416 110.146 100.448ZM142.284 103.352C139.996 103.352 138.118 102.736 136.652 101.504C135.214 100.243 134.496 98.6293 134.496 96.664C134.496 94.6987 135.244 93.1293 136.74 91.956C138.265 90.7827 140.318 90.196 142.9 90.196C143.926 90.196 144.924 90.3133 145.892 90.548C146.86 90.7533 147.842 91.0907 148.84 91.56V89.14C148.84 87.7027 148.414 86.6173 147.564 85.884C146.713 85.1213 145.452 84.74 143.78 84.74C142.87 84.74 141.888 84.8867 140.832 85.18C139.776 85.444 138.617 85.8693 137.356 86.456L135.596 82.848C137.238 82.0853 138.808 81.528 140.304 81.176C141.8 80.7947 143.281 80.604 144.748 80.604C147.593 80.604 149.808 81.308 151.392 82.716C152.976 84.0947 153.768 86.06 153.768 88.612V103H148.84V100.756C147.842 101.665 146.816 102.325 145.76 102.736C144.704 103.147 143.545 103.352 142.284 103.352ZM139.16 96.576C139.16 97.5733 139.57 98.38 140.392 98.996C141.213 99.5827 142.298 99.876 143.648 99.876C144.645 99.876 145.569 99.7293 146.42 99.436C147.3 99.1427 148.106 98.688 148.84 98.072V94.464C148.048 94.0827 147.241 93.8187 146.42 93.672C145.598 93.496 144.704 93.408 143.736 93.408C142.328 93.408 141.213 93.7013 140.392 94.288C139.57 94.8453 139.16 95.608 139.16 96.576ZM161.987 103V80.956H166.959V85.752C167.546 84.08 168.352 82.804 169.379 81.924C170.435 81.0147 171.652 80.56 173.031 80.56C173.442 80.5893 173.808 80.6333 174.131 80.692C174.454 80.7507 174.806 80.8533 175.187 81V85.356C174.806 85.18 174.366 85.048 173.867 84.96C173.398 84.872 172.928 84.828 172.459 84.828C171.286 84.828 170.215 85.1507 169.247 85.796C168.279 86.4413 167.516 87.336 166.959 88.48V103H161.987ZM179.374 92C179.374 90.3867 179.653 88.8907 180.21 87.512C180.797 86.104 181.574 84.9013 182.542 83.904C183.54 82.8773 184.713 82.0707 186.062 81.484C187.441 80.8973 188.908 80.604 190.462 80.604C192.046 80.604 193.513 80.8973 194.862 81.484C196.212 82.0707 197.385 82.8773 198.382 83.904C199.38 84.9013 200.157 86.104 200.714 87.512C201.272 88.8907 201.55 90.3867 201.55 92C201.55 93.6133 201.257 95.124 200.67 96.532C200.113 97.94 199.336 99.1573 198.338 100.184C197.37 101.181 196.197 101.973 194.818 102.56C193.469 103.147 192.017 103.44 190.462 103.44C188.908 103.44 187.441 103.147 186.062 102.56C184.713 101.973 183.54 101.167 182.542 100.14C181.574 99.1133 180.797 97.9107 180.21 96.532C179.653 95.124 179.374 93.6133 179.374 92ZM190.462 99.128C192.252 99.128 193.718 98.4533 194.862 97.104C196.036 95.7547 196.622 94.068 196.622 92.044C196.622 89.9613 196.036 88.2453 194.862 86.896C193.689 85.5467 192.222 84.872 190.462 84.872C188.673 84.872 187.192 85.5467 186.018 86.896C184.874 88.2453 184.302 89.9613 184.302 92.044C184.302 94.0973 184.874 95.7987 186.018 97.148C187.192 98.468 188.673 99.128 190.462 99.128ZM213.723 80.956V94.068C213.723 95.652 214.163 96.928 215.043 97.896C215.923 98.864 217.096 99.348 218.563 99.348C219.56 99.348 220.47 99.128 221.291 98.688C222.112 98.2187 222.816 97.5293 223.403 96.62V80.956H228.375V103H223.403V99.348C222.582 100.639 221.57 101.636 220.367 102.34C219.194 103.015 217.859 103.352 216.363 103.352C214.134 103.352 212.3 102.619 210.863 101.152C209.455 99.6853 208.751 97.7933 208.751 95.476V80.956H213.723ZM236.693 103V80.956H241.665V84.564C242.486 83.2733 243.483 82.2907 244.657 81.616C245.859 80.9413 247.194 80.604 248.661 80.604C250.89 80.604 252.709 81.352 254.117 82.848C255.554 84.3147 256.273 86.192 256.273 88.48V103H251.301V89.888C251.301 88.304 250.861 87.028 249.981 86.06C249.101 85.092 247.927 84.608 246.461 84.608C245.463 84.608 244.554 84.8427 243.733 85.312C242.941 85.752 242.251 86.3973 241.665 87.248V103H236.693ZM280.254 103V100.052C279.491 101.049 278.509 101.827 277.306 102.384C276.133 102.941 274.857 103.22 273.478 103.22C272.099 103.22 270.794 102.927 269.562 102.34C268.33 101.753 267.259 100.961 266.35 99.964C265.47 98.9373 264.766 97.7493 264.238 96.4C263.739 95.0213 263.49 93.5547 263.49 92C263.49 90.4453 263.754 88.9787 264.282 87.6C264.81 86.2213 265.529 85.0333 266.438 84.036C267.377 83.0387 268.477 82.2467 269.738 81.66C270.999 81.0733 272.349 80.78 273.786 80.78C275.047 80.78 276.221 81.044 277.306 81.572C278.421 82.0707 279.389 82.7747 280.21 83.684V71.54L285.182 70.704V103H280.254ZM268.418 92C268.418 93.9947 269.049 95.6667 270.31 97.016C271.571 98.3653 273.126 99.04 274.974 99.04C276.03 99.04 276.998 98.8347 277.878 98.424C278.787 98.0133 279.565 97.412 280.21 96.62V87.336C279.565 86.6027 278.787 86.0307 277.878 85.62C276.969 85.18 276.001 84.96 274.974 84.96C273.097 84.96 271.527 85.6347 270.266 86.984C269.034 88.304 268.418 89.976 268.418 92Z" fill="#084B83"/>
<path d="M308.825 98.688C310.409 98.688 311.905 98.3507 313.313 97.676C314.751 96.972 315.997 95.9747 317.053 94.684L320.529 98.028C319.092 99.7 317.317 101.02 315.205 101.988C313.123 102.956 310.937 103.44 308.649 103.44C306.42 103.44 304.323 103.029 302.357 102.208C300.421 101.387 298.735 100.272 297.297 98.864C295.889 97.4267 294.775 95.74 293.953 93.804C293.132 91.868 292.721 89.8 292.721 87.6C292.721 85.3707 293.132 83.288 293.953 81.352C294.775 79.416 295.889 77.744 297.297 76.336C298.735 74.8987 300.421 73.7693 302.357 72.948C304.323 72.1267 306.42 71.716 308.649 71.716C310.996 71.716 313.225 72.2 315.337 73.168C317.479 74.136 319.253 75.4707 320.661 77.172L317.097 80.692C316.012 79.3427 314.736 78.3013 313.269 77.568C311.803 76.8053 310.263 76.424 308.649 76.424C307.153 76.424 305.76 76.7173 304.469 77.304C303.179 77.8613 302.064 78.6387 301.125 79.636C300.216 80.6333 299.483 81.8213 298.925 83.2C298.397 84.5493 298.133 86.016 298.133 87.6C298.133 89.1547 298.397 90.6213 298.925 92C299.483 93.3493 300.231 94.5227 301.169 95.52C302.137 96.488 303.281 97.2653 304.601 97.852C305.921 98.4093 307.329 98.688 308.825 98.688ZM328.17 103V72.2H350.214V76.688H333.45V85.268H345.154V89.668H333.45V98.512H350.39V103H328.17ZM355.962 76.776V72.2H381.834V76.776H371.582V103H366.302V76.776H355.962Z" fill="white"/>
<circle cx="558" cy="174" r="50" fill="#084B83"/>
<path d="M576.232 81.192V78.2H600.872V81.192H590.268V109H586.88V81.192H576.232ZM610.472 109V78.2H623.1C626.034 78.2 628.395 79.0213 630.184 80.664C632.003 82.3067 632.912 84.448 632.912 87.088C632.912 89.112 632.326 90.872 631.152 92.368C630.008 93.8347 628.454 94.8467 626.488 95.404L633.044 109H629.304L623.056 95.844H613.86V109H610.472ZM622.836 81.192H613.86V93.028H622.836C624.86 93.028 626.474 92.4853 627.676 91.4C628.908 90.3147 629.524 88.892 629.524 87.132C629.524 85.3427 628.908 83.9053 627.676 82.82C626.474 81.7347 624.86 81.192 622.836 81.192ZM640.27 109L652.458 78.2H656.506L668.518 109H664.866L661.214 99.32H647.486L643.834 109H640.27ZM648.542 96.636H660.202L654.35 81.236L648.542 96.636ZM681.304 109L669.248 78.2H672.856L683.416 105.744L694.02 78.2H697.496L685.352 109H681.304ZM706.215 109V78.2H727.247V81.148H709.603V91.972H721.835V94.92H709.603V106.052H727.423V109H706.215ZM737.857 109V78.2H741.245V106.008H758.625V109H737.857Z" fill="#084B83"/>
</svg>
